<svg id="Capa_1" data-name="Capa 1" xmlns="http://www.w3.org/2000/svg" xmlns:xlink="http://www.w3.org/1999/xlink" viewBox="0 0 1067.33 979.01"><defs><style>.cls-1{fill:url(#Degradado_sin_nombre_2);}.cls-2{fill:url(#Degradado_sin_nombre_4);}</style><radialGradient id="Degradado_sin_nombre_2" cx="715.1" cy="91.84" r="985.21" gradientTransform="matrix(1.08, 0, 0, -1.12, 35.15, 1120)" gradientUnits="userSpaceOnUse"><stop offset="0" stop-color="#ec991c"/><stop offset="1" stop-color="#e9b213"/></radialGradient><linearGradient id="Degradado_sin_nombre_4" x1="209.95" y1="852.39" x2="647.03" y2="443.34" gradientUnits="userSpaceOnUse"><stop offset="0" stop-color="#fff" stop-opacity="0.6"/><stop offset="1" stop-color="#fff"/></linearGradient></defs><title>shortnim-logo</title><path id="Nimiq" class="cls-1" d="M1062.48,494.61,840.13,96.88C824.23,68.47,794.85,51,763.05,51H318.35c-31.74,0-61.06,17.53-76.93,45.89L18.92,494.61a94.31,94.31,0,0,0,0,91.78L241.27,984.11c15.89,28.41,45.28,45.91,77.08,45.89h444.7c31.74,0,61.06-17.52,76.93-45.89l222.36-397.72A94.31,94.31,0,0,0,1062.48,494.61Z" transform="translate(-7 -50.99)"/><path id="Link" class="cls-2" d="M623,458c68.81,71.08,67.86,185,.41,255-.12.14-.27.29-.41.43l-77.39,79.87c-68.26,70.44-179.31,70.43-247.56,0s-68.26-185,0-255.47l42.73-44.1c11.33-11.69,30.85-3.92,31.44,12.61A225.06,225.06,0,0,0,383.4,569a19.57,19.57,0,0,1-4.35,19.75L364,604.32c-32.28,33.31-33.29,87.54-1.33,121.17a81.21,81.21,0,0,0,117.84.61l77.39-79.85c32.47-33.51,32.33-87.66,0-121A87.62,87.62,0,0,0,546,515a19.19,19.19,0,0,1-8-15,48.17,48.17,0,0,1,13.47-35.42l24.25-25a18.07,18.07,0,0,1,23.7-2.06A175.89,175.89,0,0,1,623,458ZM785.34,290.5c-68.25-70.43-179.3-70.44-247.56,0l-77.39,79.86-.42.44c-67.45,70-68.39,184,.42,255A177.07,177.07,0,0,0,484,646.26a18.07,18.07,0,0,0,23.7-2l24.25-25a48.13,48.13,0,0,0,13.47-35.42,19.2,19.2,0,0,0-8-15,87.34,87.34,0,0,1-11.91-10.18c-32.33-33.37-32.46-87.52,0-121l77.39-79.85a81.23,81.23,0,0,1,117.85.6c32,33.63,30.94,87.87-1.33,121.18l-15.07,15.55A19.56,19.56,0,0,0,700,514.8a225.45,225.45,0,0,1,11.16,62.66c.58,16.52,20.1,24.3,31.43,12.6L785.33,546c68.26-70.42,68.26-185,0-255.46Z" transform="translate(-7 -50.99)"/></svg>